<svg width="140" height="30" viewBox="0 0 140 30" fill="none" xmlns="http://www.w3.org/2000/svg">
  <g transform="scale(0.0195) translate(0, 0)">
    <path d="M0 328.747C0 147.185 147.185 0 328.747 0H1205.4C1386.97 0 1534.15 147.185 1534.15 328.747V1205.4C1534.15 1386.97 1386.97 1534.15 1205.4 1534.15H328.747C147.185 1534.15 0 1386.97 0 1205.4V328.747Z" fill="#9EE86F"/>
    <rect x="202.822" y="216.162" width="1128.51" height="1101.83" rx="135.899" stroke="black" stroke-width="105.84"/>
    <path d="M1056.43 1206.04C1087.49 1196.17 1124.06 1174.66 1152.81 1157.38C1197.72 1130.38 1221.1 1089.62 1219.61 1036.37C1218.7 1004 1215.31 971.081 1208.12 939.604C1174.7 793.038 1107.49 662.514 1023.68 540.616C976.008 471.274 923.045 406.594 854.072 358.19C828.97 340.563 802.376 327.319 770.58 326.713C724.04 325.78 688.716 350.635 655.202 378.615C576.912 444.04 517.572 526.207 465.107 613.876C399.887 722.856 346.698 837.339 322.682 964.086C314.405 1007.69 309.385 1051.94 327.295 1094.75C346.472 1140.59 385.414 1162.69 427.431 1179.76C453.527 1190.36 479.939 1198.99 507 1206.04" stroke="black" stroke-width="119.205" stroke-miterlimit="10" stroke-linecap="round"/>
    <path d="M718.648 612.656C718.644 612.656 718.643 612.651 718.647 612.65C762.954 599.489 812.68 605.301 852.29 629.526C895.066 654.056 924.566 699.501 931.524 748.433C939.678 799.227 920.841 851.983 885.653 888.591C873.338 901.404 866.411 919.256 870.887 936.455C892.307 1018.76 913.092 1101.25 933.586 1183.83C940.295 1210.87 919.882 1237.02 892.026 1237.08C808.766 1237.26 725.504 1237.18 642.224 1237.1C614.339 1237.08 593.847 1210.93 600.56 1183.86C621.057 1101.22 642.029 1018.7 663.439 936.302C667.9 919.138 661.008 901.325 648.585 888.668C628.619 868.327 613.588 843.088 606.093 815.396C595.634 775.803 600.629 732.553 619.029 696.059C639.389 656.343 676.265 625.705 718.649 612.662C718.652 612.661 718.651 612.656 718.648 612.656Z" fill="black" stroke="#9EE86F" stroke-width="55.4979" stroke-miterlimit="10"/>
  </g>
  <text x="38" y="21" font-family="Onest, system-ui, sans-serif" font-size="16" font-weight="700" fill="#f0f0f5">Auth Plugin</text>
</svg>
